<svg width="732" height="492" viewBox="0 0 732 492" fill="none" xmlns="http://www.w3.org/2000/svg">
<path d="M365.707 45.7143C542.45 45.7143 685.707 251.429 685.707 251.429C685.707 251.429 542.45 445.714 365.707 445.714C188.964 445.714 45.707 251.429 45.707 251.429C45.707 251.429 188.964 45.7143 365.707 45.7143ZM365.707 0C167.376 0 14.5984 216.103 8.19844 225.303C-2.99013 241.371 -2.70441 262.789 8.91844 278.56C15.3299 287.257 168.153 491.429 365.707 491.429C563.261 491.429 716.084 287.257 722.507 278.56C734.13 262.789 734.416 241.371 723.227 225.303C716.816 216.103 564.038 0 365.707 0Z" fill="#00788C"/>
<path d="M366 117.174C437.139 117.174 494.826 174.846 494.826 246C494.826 317.154 437.154 374.826 366 374.826C294.846 374.826 237.174 317.154 237.174 246C237.174 174.846 294.861 117.174 366 117.174ZM366 86C277.778 86 206 157.762 206 246C206 334.238 277.778 406 366 406C454.222 406 526 334.222 526 246C526 157.778 454.222 86 366 86Z" fill="#00788C"/>
</svg>
