<svg width="800" height="800" viewBox="0 0 800 800" fill="none" xmlns="http://www.w3.org/2000/svg">
<g clip-path="url(#clip0_764_8)">
<path d="M400 0C179.44 0 0 179.44 0 400C0 620.56 179.44 800 400 800C620.56 800 800 620.56 800 400C800 179.44 620.56 0 400 0ZM400 773.333C194.147 773.333 26.6667 605.853 26.6667 400C26.6667 194.147 194.147 26.6667 400 26.6667C605.853 26.6667 773.333 194.147 773.333 400C773.333 605.853 605.853 773.333 400 773.333Z" fill="#00788C"/>
<path d="M596.686 383.463C608.356 391.4 608.356 408.6 596.686 416.537L323.748 602.181C310.47 611.212 292.5 601.702 292.5 585.643L292.5 214.357C292.5 198.298 310.47 188.788 323.748 197.819L596.686 383.463Z" fill="#00788C"/>
</g>
<defs>
<clipPath id="clip0_764_8">
<rect width="800" height="800" fill="white"/>
</clipPath>
</defs>
</svg>
